<svg width="24" height="24" viewBox="0 0 24 24" fill="none" xmlns="http://www.w3.org/2000/svg">
<path d="M21.9547 0.211897C21.9547 0.211897 24.1747 -0.826956 23.989 1.69578C23.9278 2.73463 23.373 6.37096 22.941 10.3035L21.4609 21.9537C21.4609 21.9537 21.3375 23.6605 20.2272 23.9574C19.1175 24.2536 17.4523 22.9185 17.1438 22.6216C16.8969 22.3988 12.5186 19.0594 10.9768 17.4274C10.5448 16.9817 10.0511 16.0916 11.0386 15.0527L17.514 7.63198C18.2541 6.74055 18.9941 4.66285 15.9106 7.18627L7.27624 14.2354C7.27624 14.2354 6.28937 14.978 4.43964 14.3101L0.430458 12.8256C0.430458 12.8256 -1.04956 11.7126 1.47904 10.5997C7.64653 7.11221 15.2323 3.55063 21.9541 0.211211" fill="#F6F6F6"/>
</svg>
